<svg xmlns="http://www.w3.org/2000/svg" viewBox="0 0 64 64">
  <defs>
    <linearGradient id="orcai-favicon-bg" x1="8" y1="8" x2="56" y2="56" gradientUnits="userSpaceOnUse">
      <stop offset="0" stop-color="#0b6f57" />
      <stop offset="1" stop-color="#2273c7" />
    </linearGradient>
  </defs>
  <rect width="64" height="64" rx="14" fill="url(#orcai-favicon-bg)" />
  <path
    d="M44.8 17c-9.2 0-16.6 7.4-16.6 16.6 0 5.1 2.3 9.7 5.8 12.7-4.2-.5-7.9-2.7-10.2-6.1L18 44.1c3.8 5.7 10.2 9.4 17.5 9.4 11.7 0 21.3-9.5 21.3-21.3 0-2.2-.3-4.3-1-6.3l-6.4 2.1c.4 1.4.5 2.8.5 4.2 0 2.7-.8 5.3-2.1 7.5-3.6-.8-6.3-4-6.3-7.9 0-5.2 4.2-9.4 9.4-9.4h.1V17h-.6z"
    fill="#f7fff9"
  />
  <circle cx="46.6" cy="23.6" r="2.1" fill="#f7fff9" />
</svg>
